<svg width="24" height="24" viewBox="0 0 24 24" fill="none" xmlns="http://www.w3.org/2000/svg">
<path d="M19.7969 16.4667C19.7969 17.1481 19.6437 17.7556 19.3375 18.2889C19.0312 18.8222 18.6024 19.2444 18.0511 19.5556C17.4998 19.8519 16.8872 20 16.2134 20C15.5549 20 14.95 19.8519 14.3987 19.5556C13.8627 19.2444 13.4339 18.8222 13.1123 18.2889C12.8061 17.7556 12.6529 17.1481 12.6529 16.4667C12.6529 15.8148 12.8061 15.2296 13.1123 14.7111C13.4339 14.1778 13.8627 13.763 14.3987 13.4667C14.95 13.1704 15.5549 13.0222 16.2134 13.0222C16.8872 13.0222 17.4998 13.1704 18.0511 13.4667C18.6024 13.763 19.0312 14.1778 19.3375 14.7111C19.6437 15.2296 19.7969 15.8148 19.7969 16.4667ZM17.4538 16.4667C17.4538 16.0815 17.339 15.7704 17.1093 15.5333C16.8949 15.2963 16.5963 15.1778 16.2134 15.1778C15.8459 15.1778 15.5473 15.2963 15.3175 15.5333C15.1032 15.7704 14.996 16.0815 14.996 16.4667C14.996 16.8815 15.1032 17.2148 15.3175 17.4667C15.5473 17.7037 15.8459 17.8222 16.2134 17.8222C16.5963 17.8222 16.8949 17.7037 17.1093 17.4667C17.339 17.2148 17.4538 16.8815 17.4538 16.4667ZM11.9638 7.46667C11.9638 8.13333 11.803 8.73333 11.4814 9.26667C11.1751 9.8 10.7463 10.2222 10.195 10.5333C9.64374 10.8296 9.03884 10.9778 8.38034 10.9778C7.70652 10.9778 7.09397 10.8296 6.54266 10.5333C6.00668 10.2222 5.57789 9.8 5.25629 9.26667C4.95001 8.73333 4.79688 8.13333 4.79688 7.46667C4.79688 6.81481 4.95001 6.22222 5.25629 5.68889C5.57789 5.15556 6.00668 4.74074 6.54266 4.44444C7.09397 4.14815 7.70652 4 8.38034 4C9.03884 4 9.64374 4.14815 10.195 4.44444C10.7463 4.74074 11.1751 5.15556 11.4814 5.68889C11.803 6.22222 11.9638 6.81481 11.9638 7.46667ZM9.59779 7.46667C9.59779 7.08148 9.48294 6.77037 9.25323 6.53333C9.03884 6.28148 8.74787 6.15556 8.38034 6.15556C7.99749 6.15556 7.69121 6.28148 7.4615 6.53333C7.2471 6.77037 7.13991 7.08148 7.13991 7.46667C7.13991 7.86667 7.2471 8.19259 7.4615 8.44444C7.69121 8.68148 7.99749 8.8 8.38034 8.8C8.74787 8.8 9.03884 8.68148 9.25323 8.44444C9.48294 8.19259 9.59779 7.86667 9.59779 7.46667ZM19.1077 4.22222L8.42628 19.7778H5.50897L16.1904 4.22222H19.1077Z" fill="black"/>
</svg>
