<svg width="24" height="24" viewBox="0 0 24 24" fill="none" xmlns="http://www.w3.org/2000/svg">
<path d="M19.5 16.4667C19.5 17.1481 19.3469 17.7556 19.0406 18.2889C18.7343 18.8222 18.3055 19.2444 17.7542 19.5556C17.2029 19.8519 16.5904 20 15.9165 20C15.258 20 14.6531 19.8519 14.1018 19.5556C13.5658 19.2444 13.1371 18.8222 12.8155 18.2889C12.5092 17.7556 12.356 17.1481 12.356 16.4667C12.356 15.8148 12.5092 15.2296 12.8155 14.7111C13.1371 14.1778 13.5658 13.763 14.1018 13.4667C14.6531 13.1704 15.258 13.0222 15.9165 13.0222C16.5904 13.0222 17.2029 13.1704 17.7542 13.4667C18.3055 13.763 18.7343 14.1778 19.0406 14.7111C19.3469 15.2296 19.5 15.8148 19.5 16.4667ZM17.157 16.4667C17.157 16.0815 17.0421 15.7704 16.8124 15.5333C16.598 15.2963 16.2994 15.1778 15.9165 15.1778C15.549 15.1778 15.2504 15.2963 15.0207 15.5333C14.8063 15.7704 14.6991 16.0815 14.6991 16.4667C14.6991 16.8815 14.8063 17.2148 15.0207 17.4667C15.2504 17.7037 15.549 17.8222 15.9165 17.8222C16.2994 17.8222 16.598 17.7037 16.8124 17.4667C17.0421 17.2148 17.157 16.8815 17.157 16.4667ZM11.6669 7.46667C11.6669 8.13333 11.5061 8.73333 11.1845 9.26667C10.8783 9.8 10.4495 10.2222 9.89816 10.5333C9.34686 10.8296 8.74196 10.9778 8.08346 10.9778C7.40965 10.9778 6.79709 10.8296 6.24579 10.5333C5.7098 10.2222 5.28101 9.8 4.95942 9.26667C4.65314 8.73333 4.5 8.13333 4.5 7.46667C4.5 6.81481 4.65314 6.22222 4.95942 5.68889C5.28101 5.15556 5.7098 4.74074 6.24579 4.44444C6.79709 4.14815 7.40965 4 8.08346 4C8.74196 4 9.34686 4.14815 9.89816 4.44444C10.4495 4.74074 10.8783 5.15556 11.1845 5.68889C11.5061 6.22222 11.6669 6.81481 11.6669 7.46667ZM9.30092 7.46667C9.30092 7.08148 9.18606 6.77037 8.95636 6.53333C8.74196 6.28148 8.451 6.15556 8.08346 6.15556C7.70061 6.15556 7.39433 6.28148 7.16462 6.53333C6.95023 6.77037 6.84303 7.08148 6.84303 7.46667C6.84303 7.86667 6.95023 8.19259 7.16462 8.44444C7.39433 8.68148 7.70061 8.8 8.08346 8.8C8.451 8.8 8.74196 8.68148 8.95636 8.44444C9.18606 8.19259 9.30092 7.86667 9.30092 7.46667ZM18.8109 4.22222L8.1294 19.7778H5.2121L15.8936 4.22222H18.8109Z" fill="white"/>
</svg>
