<svg width="36" height="36" viewBox="0 0 36 36" fill="none" xmlns="http://www.w3.org/2000/svg">
<path d="M18 9C21.866 9 25 12.134 25 16V24H11V16C11 12.134 14.134 9 18 9Z" stroke="#5500EB" stroke-width="2"/>
<path d="M22.9004 23C22.4371 25.2822 20.4199 27 18.001 27C15.5821 27 13.5649 25.2822 13.1016 23H15.1748C15.5869 24.1647 16.6951 25 18.001 25C19.3068 25 20.415 24.1647 20.8271 23H22.9004Z" fill="#5500EB"/>
<path d="M28 10C29.1046 10 30 9.10457 30 8C30 6.89543 29.1046 6 28 6C26.8954 6 26 6.89543 26 8C26 9.10457 26.8954 10 28 10Z" fill="#5500EB"/>
</svg>
