<svg width="36" height="36" viewBox="0 0 36 36" fill="none" xmlns="http://www.w3.org/2000/svg">
<path d="M26 18C26 22.4183 22.4183 26 18 26M26 18C26 13.5817 22.4183 10 18 10M26 18H10M18 26C13.5817 26 10 22.4183 10 18M18 26V10M10 18C10 13.5817 13.5817 10 18 10M11 14H25M11 14.3H25M10 18.3H26M11 22H25M11 22.3H25M17.7 10V26M17 10.5C15.6667 11.6667 14 14.8 14 18C14 21.2 15.6667 24.3333 17 25.5M19 10.5C20.3333 11.6667 22 14.8 22 18C22 21.2 20.3333 24.3333 19 25.5" stroke="#5500EB" stroke-width="1.4"/>
</svg>
