<svg width="16" height="16" viewBox="0 0 16 16" fill="none" xmlns="http://www.w3.org/2000/svg">
<mask id="path-1-inside-1_350_7463" fill="white">
<path d="M13 4C13.5523 4 14 4.44772 14 5V7.13477C13.7013 7.30773 13.5 7.63003 13.5 8C13.5 8.36979 13.7016 8.69123 14 8.86426V11C14 11.5523 13.5523 12 13 12H3C2.44772 12 2 11.5523 2 11V8.86426C2.29843 8.69123 2.5 8.36979 2.5 8C2.5 7.63003 2.29867 7.30773 2 7.13477V5C2 4.44772 2.44772 4 3 4H13Z"/>
</mask>
<path d="M14 7.13477L14.5012 8.00012L15 7.71123V7.13477H14ZM14 8.86426H15V8.28812L14.5016 7.99915L14 8.86426ZM13 12V13V13V12ZM2 8.86426L1.49842 7.99915L1 8.28812V8.86426H2ZM2 7.13477H1V7.71123L1.49885 8.00012L2 7.13477ZM2 5H1H2ZM3 4V3V3V4ZM13 4V5H14H15C15 3.89543 14.1046 3 13 3V4ZM14 5H13V7.13477H14H15V5H14ZM14 7.13477L13.4988 6.26941C12.9056 6.61298 12.5 7.25719 12.5 8H13.5H14.5C14.5 7.99861 14.5001 7.99891 14.4998 8.00013C14.4995 8.00117 14.4992 8.00184 14.4991 8.00203C14.499 8.00213 14.4992 8.00178 14.4997 8.00124C14.5003 8.00069 14.5008 8.00032 14.5012 8.00012L14 7.13477ZM13.5 8H12.5C12.5 8.74407 12.9071 9.38652 13.4984 9.72937L14 8.86426L14.5016 7.99915C14.4997 7.99808 14.4987 7.99667 14.4987 7.99669C14.4989 7.99698 14.4993 7.99784 14.4997 7.99914C14.5001 8.00063 14.5 8.00119 14.5 8H13.5ZM14 8.86426H13V11H14H15V8.86426H14ZM14 11H13V11V12V13C14.1046 13 15 12.1046 15 11H14ZM13 12V11H3V12V13H13V12ZM3 12V11H2H1C1 12.1046 1.89543 13 3 13V12ZM2 11H3V8.86426H2H1V11H2ZM2 8.86426L2.50158 9.72937C3.09292 9.38652 3.5 8.74407 3.5 8H2.5H1.5C1.5 8.00119 1.49989 8.00063 1.5003 7.99914C1.50067 7.99784 1.50111 7.99698 1.50128 7.99669C1.50129 7.99667 1.50026 7.99808 1.49842 7.99915L2 8.86426ZM2.5 8H3.5C3.5 7.25719 3.09442 6.61298 2.50115 6.26941L2 7.13477L1.49885 8.00012C1.49918 8.00032 1.49971 8.00069 1.50026 8.00124C1.50081 8.00178 1.50101 8.00213 1.50095 8.00203C1.50084 8.00184 1.50049 8.00117 1.5002 8.00013C1.49986 7.99891 1.5 7.99861 1.5 8H2.5ZM2 7.13477H3V5H2H1V7.13477H2ZM2 5H3V5V4V3C1.89543 3 1 3.89543 1 5H2ZM3 4V5H13V4V3H3V4Z" fill="black" mask="url(#path-1-inside-1_350_7463)"/>
</svg>
