<svg width="24" height="24" viewBox="0 0 24 24" fill="none" xmlns="http://www.w3.org/2000/svg">
<path d="M11.8073 4.00039C10.546 4.00039 9.44837 4.37205 8.5651 5.00996V4.27125H6V20H8.5651V15.1938C9.44877 15.8317 10.546 16.2033 11.8073 16.2033C15.2276 16.2033 18 13.4716 18 10.1017C18 6.73169 15.2276 4 11.8073 4V4.00039ZM11.8073 13.6709C9.80684 13.6709 8.18516 12.0731 8.18516 10.1021C8.18516 8.131 9.80684 6.53316 11.8073 6.53316C13.8078 6.53316 15.4294 8.131 15.4294 10.1021C15.4294 12.0731 13.8078 13.6709 11.8073 13.6709Z" fill="black"/>
</svg>
