<svg width="69" height="24" viewBox="0 0 69 24" fill="none" xmlns="http://www.w3.org/2000/svg">
<g clip-path="url(#clip0_350_8562)">
<path d="M47.6668 8.03387C48.576 8.03387 49.3131 7.29875 49.3131 6.39194C49.3131 5.48512 48.576 4.75 47.6668 4.75C46.7576 4.75 46.0205 5.48512 46.0205 6.39194C46.0205 7.29875 46.7576 8.03387 47.6668 8.03387Z" fill="#5500EB"/>
<path d="M48.8625 9.34766H46.4712V20.2107H48.8625V9.34766Z" fill="#5500EB"/>
<path d="M4.97986 9.09492C4.04728 9.09492 3.18191 9.38166 2.46711 9.87162V4.29492H0V20.2107H2.36073V13.6171C2.36073 12.3308 3.40652 11.2878 4.69631 11.2878C5.98611 11.2878 7.03189 12.3308 7.03189 13.6171V20.2107H9.42317V13.5261C9.42317 11.0788 7.43403 9.09492 4.98022 9.09492H4.97986Z" fill="#5500EB"/>
<path d="M56.7349 9.09473C55.7689 9.09473 54.8751 9.40225 54.1459 9.92448V9.34741H51.7546V20.2105H54.1154V13.6169C54.1154 12.3306 55.1612 11.2876 56.451 11.2876C57.7407 11.2876 58.7865 12.3306 58.7865 13.6169V20.2105H61.1778V13.5259C61.1778 11.0786 59.1887 9.09473 56.7349 9.09473Z" fill="#5500EB"/>
<path d="M67.2068 18.0685C66.4794 18.0685 65.8896 17.4803 65.8896 16.7549V11.6721H68.8786V9.53981H65.8896V7.07422H63.5796V16.7753C63.5796 18.6728 65.122 20.2111 67.0246 20.2111H69.0004V18.0688H67.2071L67.2068 18.0685Z" fill="#5500EB"/>
<path d="M12.7157 8.58925C15.0939 8.58925 17.0217 6.66648 17.0217 4.29462C17.0217 1.92277 15.0939 0 12.7157 0C10.3375 0 8.40967 1.92277 8.40967 4.29462C8.40967 6.66648 10.3375 8.58925 12.7157 8.58925Z" fill="#00F596"/>
<path d="M38.3855 9.09473C35.2377 9.09473 32.6862 11.6395 32.6862 14.779C32.6862 17.9184 35.2377 20.4632 38.3855 20.4632C41.5332 20.4632 44.0848 17.9184 44.0848 14.779C44.0848 11.6395 41.5332 9.09473 38.3855 9.09473ZM38.3855 18.1037C36.5444 18.1037 35.0519 16.6152 35.0519 14.779C35.0519 12.9428 36.5444 11.4542 38.3855 11.4542C40.2266 11.4542 41.719 12.9428 41.719 14.779C41.719 16.6152 40.2266 18.1037 38.3855 18.1037Z" fill="#5500EB"/>
<path d="M25.609 9.09509C24.4482 9.09509 23.438 9.44132 22.6251 10.0356V9.34741H20.2644V24.0001H22.6251V19.5227C23.4384 20.1169 24.4482 20.4632 25.609 20.4632C28.7568 20.4632 31.3084 17.9184 31.3084 14.779C31.3084 11.6395 28.7568 9.09473 25.609 9.09473V9.09509ZM25.609 18.104C23.768 18.104 22.2755 16.6155 22.2755 14.7793C22.2755 12.9431 23.768 11.4546 25.609 11.4546C27.4501 11.4546 28.9426 12.9431 28.9426 14.7793C28.9426 16.6155 27.4501 18.104 25.609 18.104Z" fill="#5500EB"/>
</g>
<defs>
<clipPath id="clip0_350_8562">
<rect width="69" height="24" fill="white"/>
</clipPath>
</defs>
</svg>
